# generated from PmQm by Jehee Lee
:FULLY-SPECIFIED
:DEGREES
205
root 114.2722657 20.07104295 -91.33198011 45.21637804 83.7969198 0.04641346043
RightUpLeg -65.32983909 -3.300375448 -2.69481499
RightLeg 127.0690843 0 0
RightFoot -36.20388271 16.83399779 -11.57764907
RightToes 1.74622e-010 -3.18055e-015 8.94531e-016
Spine 53.8352622 -2.066186003 5.014803842
Spine1 -15.97519341 -0.1786101918 11.15828104
HEad -64.66844908 -1.226184092 3.35635125
LeftShoulder1 0 -2.69403e-036 -1.28585e-037
LeftArm 2.732555425 -56.12214105 -90.68676275
LeftForeArm 10.50307582 0.2758431506 1.727979793
LeftHand -3.220577911 -0.2510535627 41.97720495
RightShoulder -2.48481e-017 0 -8.08114e-019
RightArm 17.98457153 3.130689128 90.78544965
RightForeArm 7.179002882 17.42754857 -9.300396101
RightHand 7.779659073 -20.2156059 -42.80870415
LeftUpLeg -30.99677557 -16.65888348 17.05543786
LeftLeg 88.18974577 -1.897625494 7.644827061
LeftFoot 4.568900781 -26.19640087 0.5573769662
LeftToes 4.94765e-010 2.02697e-011 4.00889e-011
206
root 115.2553746 20.26704895 -91.24346041 61.48841412 80.76854656 16.59528519
RightUpLeg -61.51418533 -5.131984421 -1.51231238
RightLeg 123.7937333 0 0
RightFoot -37.62462564 13.77584356 -10.63183362
RightToes 1.74622e-010 -3.18055e-015 8.94531e-016
Spine 53.53920432 -0.8263266191 2.650903401
Spine1 -16.2032882 -0.1401242386 10.91654547
HEad -65.08554707 -3.52388779 6.265378748
LeftShoulder1 0 -2.69403e-036 -1.28585e-037
LeftArm 5.002856534 -55.42024118 -97.07161576
LeftForeArm 14.3958455 0.07426139919 1.368238821
LeftHand -3.249714768 -0.3451036286 41.78322783
RightShoulder -2.48481e-017 0 -8.08114e-019
RightArm 22.01261006 -0.4415161586 87.79610717
RightForeArm -1.767473536 19.52525318 -18.29959448
RightHand 7.308494756 -19.71357424 -41.39789243
LeftUpLeg -36.65745449 -14.33507041 18.54938884
LeftLeg 95.50720509 -3.542553335 8.280735671
LeftFoot 4.319989375 -24.68957787 -2.641410622
LeftToes 4.94765e-010 2.02697e-011 4.00889e-011
207
root 116.1814205 20.34963239 -91.2438688 62.81714257 78.12871968 18.37812929
RightUpLeg -57.98058596 -5.730283554 -1.702997263
RightLeg 121.2713406 0 0
RightFoot -38.81773474 14.39691477 -9.829478732
RightToes 1.74622e-010 -3.18055e-015 8.94531e-016
Spine 53.40852835 0.04887023315 1.190634256
Spine1 -16.28663234 -0.01336774846 10.95496556
HEad -65.55099172 -4.808970497 7.779470326
LeftShoulder1 0 -2.69403e-036 -1.28585e-037
LeftArm 4.465559678 -54.03797075 -99.81674143
LeftForeArm 18.11527521 -0.2129392748 0.6308363517
LeftHand -3.410652995 -0.4371389967 43.07121523
RightShoulder -2.48481e-017 0 -8.08114e-019
RightArm 17.2090075 0.03119720469 84.52764876
RightForeArm -0.03681268056 22.71464034 -22.96723252
RightHand 6.987906848 -19.37138438 -40.35028999
LeftUpLeg -42.03803673 -12.62330176 19.76597883
LeftLeg 103.589773 -4.723189613 6.598365581
LeftFoot 3.637721921 -23.89436164 -1.588512738
LeftToes 4.94765e-010 2.02697e-011 4.00889e-011
208
root 117.1038233 20.32249674 -91.28950466 56.4171751 75.67357665 12.17598096
RightUpLeg -54.88830968 -4.438264058 -2.337685074
RightLeg 119.0350256 0 0
RightFoot -39.7627369 16.04677636 -9.562447202
RightToes 1.74622e-010 -3.18055e-015 8.94531e-016
Spine 53.06092452 0.8587622001 1.068370552
Spine1 -16.13876905 0.8114113789 8.825303118
HEad -65.73738679 -5.873353265 9.398594178
LeftShoulder1 0 -2.69403e-036 -1.28585e-037
LeftArm 4.558891535 -52.3397453 -101.7673799
LeftForeArm 21.05389905 -0.5896064248 -0.4959319396
LeftHand -3.601781268 -0.5643673545 44.3896983
RightShoulder -2.48481e-017 0 -8.08114e-019
RightArm 11.94407289 3.021888186 80.82303819
RightForeArm 1.79135623 26.19990748 -26.07873886
RightHand 6.55114854 -18.89328993 -38.87695972
LeftUpLeg -47.10152276 -10.71853913 20.91235094
LeftLeg 111.6720243 -5.02373061 4.404675833
LeftFoot 1.706602277 -23.73682871 2.24751755
LeftToes 4.94765e-010 2.02697e-011 4.00889e-011
209
root 118.0225557 20.21382935 -91.34284877 47.45350664 72.54295385 2.930016615
RightUpLeg -52.47706796 -1.741519033 -2.910649185
RightLeg 116.9266478 0 0
RightFoot -40.43816582 16.56992691 -9.804688895
RightToes 1.74622e-010 -3.18055e-015 8.94531e-016
Spine 52.70580877 1.713955285 1.713576026
Spine1 -16.39849701 2.191259323 4.308829228
HEad -65.26321028 -6.46096958 11.6310781
LeftShoulder1 0 -2.69403e-036 -1.28585e-037
LeftArm 5.475424498 -50.85510328 -104.0148404
LeftForeArm 23.64133882 -0.9361828052 -1.523504511
LeftHand -3.735415077 -0.6602123832 45.23255539
RightShoulder -2.48481e-017 0 -8.08114e-019
RightArm 7.930450323 7.324848007 77.00068754
RightForeArm 1.53073182 28.30140194 -27.95162506
RightHand 6.144475957 -18.44489425 -37.39547293
LeftUpLeg -52.24221709 -8.108820487 22.1879963
LeftLeg 118.8513982 -4.798601431 2.9872887
LeftFoot -0.3332277617 -23.45767896 2.944456031
LeftToes 4.94765e-010 2.02697e-011 4.00889e-011
210
root 118.9092846 20.03357766 -91.40454346 39.42919699 68.65332619 -5.34572663
RightUpLeg -50.25244973 1.552013058 -3.608350632
RightLeg 115.1627504 0 0
RightFoot -41.19921758 16.59478132 -9.736459151
RightToes 1.74622e-010 -3.18055e-015 8.94531e-016
Spine 52.8951142 2.551174282 2.956396335
Spine1 -17.26115307 3.837182067 -1.451694058
HEad -64.69686976 -6.896649312 13.82727861
LeftShoulder1 0 -2.69403e-036 -1.28585e-037
LeftArm 6.400222807 -49.19135879 -106.4992107
LeftForeArm 26.43482955 -1.223188948 -2.288901955
LeftHand -3.868261384 -0.7199611456 46.25955914
RightShoulder -2.48481e-017 0 -8.08114e-019
RightArm 5.277231345 12.40496825 72.64960896
RightForeArm 0.1762060888 28.4520665 -28.20333712
RightHand 5.788852357 -18.06210108 -35.95759069
LeftUpLeg -57.14924906 -5.042866804 23.62309763
LeftLeg 124.6409157 -3.888909982 1.555047471
LeftFoot -1.888047833 -23.90377662 4.433882322
LeftToes 4.94765e-010 2.02697e-011 4.00889e-011
